<svg width="32" height="32" viewBox="0 0 32 32" fill="none" xmlns="http://www.w3.org/2000/svg">
<path d="M26.7065 16.0003C26.7065 10.1203 21.8798 5.29366 15.9998 5.29366C10.1198 5.29366 5.29317 10.1203 5.29317 16.0003C5.29317 21.8803 10.1198 26.707 15.9998 26.707C21.8798 26.707 26.7065 21.8803 26.7065 16.0003ZM29.3332 16.0003C29.3332 23.387 23.3865 29.3337 15.9998 29.3337C8.61317 29.3337 2.6665 23.387 2.6665 16.0003C2.6665 8.61366 8.61317 2.66699 15.9998 2.66699C23.3865 2.66699 29.3332 8.61366 29.3332 16.0003ZM18.0532 17.3337V21.3337L23.3332 16.0003L18.0532 10.667V14.667L8.6665 14.667V17.3337" fill="#1B1B1B"/>
</svg>
