<svg width="32" height="32" viewBox="0 0 32 32" fill="none" xmlns="http://www.w3.org/2000/svg">
<path d="M5.2935 15.9997C5.2935 21.8797 10.1202 26.7063 16.0002 26.7063C21.8802 26.7063 26.7068 21.8797 26.7068 15.9997C26.7068 10.1197 21.8802 5.29301 16.0002 5.29301C10.1202 5.29301 5.2935 10.1197 5.2935 15.9997ZM2.66683 15.9997C2.66683 8.61301 8.6135 2.66634 16.0002 2.66634C23.3868 2.66634 29.3335 8.61301 29.3335 15.9997C29.3335 23.3863 23.3868 29.333 16.0002 29.333C8.6135 29.333 2.66683 23.3863 2.66683 15.9997ZM13.9468 14.6663L13.9468 10.6663L8.66683 15.9997L13.9468 21.333L13.9468 17.333L23.3335 17.333L23.3335 14.6663" fill="#1B1B1B"/>
</svg>
