<svg width="1728" height="71" viewBox="0 0 1728 71" fill="none" xmlns="http://www.w3.org/2000/svg">
<circle cx="34" cy="34" r="24" fill="#D9D9D9"/>
<rect x="102" y="10" width="48" height="48" fill="#D9D9D9"/>
<path d="M219.5 10L241.584 48.25H197.416L219.5 10Z" fill="#D9D9D9"/>
<path d="M334 34C334 47.2548 323.255 58 310 58C296.745 58 286 47.2548 286 34C286 20.7452 296.745 10 310 10C323.255 10 334 20.7452 334 34ZM298 34C298 40.6274 303.373 46 310 46C316.627 46 322 40.6274 322 34C322 27.3726 316.627 22 310 22C303.373 22 298 27.3726 298 34Z" fill="#D9D9D9"/>
<path d="M399.966 10L420.857 26.5836L412.877 53.4164H387.055L379.075 26.5836L399.966 10Z" fill="#D9D9D9"/>
<path d="M491.966 10L513.932 34L491.966 58L470 34L491.966 10Z" fill="#D9D9D9"/>
<circle cx="586" cy="34" r="24" fill="#D9D9D9"/>
<rect x="654" y="10" width="48" height="48" fill="#D9D9D9"/>
<path d="M771.5 10L793.584 48.25H749.416L771.5 10Z" fill="#D9D9D9"/>
<path d="M886 34C886 47.2548 875.255 58 862 58C848.745 58 838 47.2548 838 34C838 20.7452 848.745 10 862 10C875.255 10 886 20.7452 886 34ZM850 34C850 40.6274 855.373 46 862 46C868.627 46 874 40.6274 874 34C874 27.3726 868.627 22 862 22C855.373 22 850 27.3726 850 34Z" fill="#D9D9D9"/>
<path d="M951.966 10L972.857 26.5836L964.877 53.4164H939.055L931.075 26.5836L951.966 10Z" fill="#D9D9D9"/>
<path d="M1043.97 10L1065.93 34L1043.97 58L1022 34L1043.97 10Z" fill="#D9D9D9"/>
<circle cx="1138" cy="34" r="24" fill="#D9D9D9"/>
<rect x="1206" y="10" width="48" height="48" fill="#D9D9D9"/>
<path d="M1323.5 10L1345.58 48.25H1301.42L1323.5 10Z" fill="#D9D9D9"/>
<path d="M1438 34C1438 47.2548 1427.25 58 1414 58C1400.75 58 1390 47.2548 1390 34C1390 20.7452 1400.75 10 1414 10C1427.25 10 1438 20.7452 1438 34ZM1402 34C1402 40.6274 1407.37 46 1414 46C1420.63 46 1426 40.6274 1426 34C1426 27.3726 1420.63 22 1414 22C1407.37 22 1402 27.3726 1402 34Z" fill="#D9D9D9"/>
<path d="M1503.97 10L1524.86 26.5836L1516.88 53.4164H1491.05L1483.08 26.5836L1503.97 10Z" fill="#D9D9D9"/>
<path d="M1595.97 10L1617.93 34L1595.97 58L1574 34L1595.97 10Z" fill="#D9D9D9"/>
<circle cx="1690" cy="34" r="24" fill="#D9D9D9"/>
</svg>
