<svg width="1672" height="651" viewBox="0 0 1672 651" fill="none" xmlns="http://www.w3.org/2000/svg">
<g style="mix-blend-mode:soft-light">
<path d="M155.84 408.655L151.132 410.033L151.147 410.086L151.164 410.138L155.84 408.655ZM188.218 472.512L184.325 475.497L184.381 475.569L184.439 475.64L188.218 472.512ZM240.383 512.985L242.472 508.546L240.383 512.985ZM379.789 512.985L377.749 508.523L377.724 508.534L377.7 508.546L379.789 512.985ZM431.953 472.512L428.122 469.448L428.116 469.456L428.11 469.464L431.953 472.512ZM464.331 408.655L459.655 407.173L459.638 407.225L459.623 407.277L464.331 408.655ZM464.331 243.168L459.614 244.515L459.634 244.583L459.655 244.65L464.331 243.168ZM431.953 179.311L428.06 182.296L428.116 182.368L428.174 182.439L431.953 179.311ZM379.789 137.939L377.7 142.378L377.724 142.389L377.749 142.401L379.789 137.939ZM240.383 138.838L242.472 143.277L242.525 143.252L242.577 143.226L240.383 138.838ZM188.218 180.21L184.388 177.146L184.381 177.154L184.375 177.162L188.218 180.21ZM155.84 244.067L151.154 242.616L151.143 242.653L151.132 242.689L155.84 244.067ZM596.542 467.116L591.982 465.305L591.975 465.323L591.968 465.341L596.542 467.116ZM531.786 568.747L535.216 572.254L535.235 572.235L535.255 572.216L531.786 568.747ZM432.853 629.905L431.193 625.289L431.182 625.293L431.17 625.297L432.853 629.905ZM91.0842 568.747L87.6528 572.253L87.6721 572.272L87.6915 572.29L91.0842 568.747ZM24.5293 467.116L19.9698 468.926L19.9744 468.938L19.9791 468.949L24.5293 467.116ZM25.4287 185.607L29.9551 187.498L29.9601 187.486L29.965 187.474L25.4287 185.607ZM92.883 83.076L89.4887 79.5341L89.47 79.552L89.4516 79.57L92.883 83.076ZM191.816 21.0181L190.134 16.4098L190.122 16.4142L190.11 16.4186L191.816 21.0181ZM431.054 21.0181L432.736 16.4098L431.054 21.0181ZM529.987 83.076L533.418 79.57L529.987 83.076ZM596.542 185.607L591.982 187.417L591.987 187.429L591.992 187.44L596.542 185.607ZM140.142 325.911C140.142 356.87 143.783 384.926 151.132 410.033L160.549 407.277C153.507 383.218 149.953 356.112 149.953 325.911H140.142ZM151.164 410.138C159.107 435.19 170.144 457 184.325 475.497L192.112 469.527C178.711 452.049 168.163 431.288 160.517 407.173L151.164 410.138ZM184.439 475.64C199.289 493.583 217.254 507.522 238.294 517.424L242.472 508.546C222.74 499.26 205.929 486.218 191.998 469.384L184.439 475.64ZM238.294 517.424C259.436 527.373 283.554 532.281 310.535 532.281V522.469C284.753 522.469 262.102 517.784 242.472 508.546L238.294 517.424ZM310.535 532.281C336.936 532.281 360.75 527.366 381.877 517.424L377.7 508.546C358.055 517.79 335.7 522.469 310.535 522.469V532.281ZM381.828 517.446C403.49 507.544 421.506 493.58 435.797 475.561L428.11 469.464C414.82 486.221 398.059 499.238 377.749 508.523L381.828 517.446ZM435.784 475.577C450.616 457.036 461.685 435.162 469.04 410.033L459.623 407.277C452.588 431.315 442.071 452.012 428.122 469.448L435.784 475.577ZM469.008 410.138C476.98 384.996 480.929 356.903 480.929 325.911H471.118C471.118 356.078 467.272 383.148 459.655 407.173L469.008 410.138ZM480.929 325.911C480.929 294.92 476.98 266.827 469.008 241.685L459.655 244.65C467.272 268.675 471.118 295.745 471.118 325.911H480.929ZM469.048 241.82C461.697 216.089 450.619 194.171 435.733 176.183L428.174 182.439C442.068 199.227 452.576 219.88 459.614 244.515L469.048 241.82ZM435.846 176.326C421.559 157.69 403.53 143.398 381.828 133.477L377.749 142.401C398.019 151.667 414.766 164.956 428.06 182.296L435.846 176.326ZM381.877 133.5C360.75 123.558 336.936 118.643 310.535 118.643V128.454C335.7 128.454 358.055 133.133 377.7 142.378L381.877 133.5ZM310.535 118.643C283.512 118.643 259.356 123.867 238.189 134.45L242.577 143.226C262.182 133.424 284.795 128.454 310.535 128.454V118.643ZM238.294 134.399C217.215 144.319 199.235 158.586 184.388 177.146L192.049 183.275C205.982 165.859 222.779 152.544 242.472 143.277L238.294 134.399ZM184.375 177.162C170.143 195.106 159.095 216.96 151.154 242.616L160.527 245.517C168.175 220.808 178.712 200.091 192.062 183.259L184.375 177.162ZM151.132 242.689C143.786 267.788 140.142 295.543 140.142 325.911H149.953C149.953 296.321 153.505 269.512 160.549 245.445L151.132 242.689ZM615.919 325.911C615.919 378.786 607.899 425.219 591.982 465.305L601.101 468.926C617.563 427.468 625.731 379.765 625.731 325.911H615.919ZM591.968 465.341C576.599 504.945 555.368 538.227 528.317 565.278L535.255 572.216C563.366 544.104 585.305 509.632 601.115 468.891L591.968 465.341ZM528.355 565.24C501.306 591.701 468.943 611.723 431.193 625.289L434.512 634.522C473.511 620.507 507.103 599.756 535.216 572.254L528.355 565.24ZM431.17 625.297C393.981 638.874 353.783 645.686 310.535 645.686V655.497C354.829 655.497 396.176 648.518 434.535 634.514L431.17 625.297ZM310.535 645.686C268.504 645.686 228.904 638.88 191.7 625.297L188.335 634.514C226.679 648.513 267.424 655.497 310.535 655.497V645.686ZM191.7 625.297C154.543 611.732 122.152 591.701 94.4769 565.203L87.6915 572.29C116.378 599.756 149.943 620.498 188.335 634.514L191.7 625.297ZM94.5156 565.241C66.865 538.179 45.0403 504.888 29.0795 465.282L19.9791 468.949C36.3964 509.689 58.9416 544.153 87.6528 572.253L94.5156 565.241ZM29.0888 465.305C13.1722 425.219 5.15154 378.786 5.15154 325.911H-4.66C-4.66 379.765 3.50836 427.468 19.9698 468.926L29.0888 465.305ZM5.15154 325.911C5.15154 273.055 13.4665 226.953 29.9551 187.498L20.9023 183.715C3.81363 224.606 -4.66 272.041 -4.66 325.911H5.15154ZM29.965 187.474C46.5302 147.245 68.6623 113.646 96.3144 86.582L89.4516 79.57C60.7419 107.669 37.9045 142.424 20.8924 183.739L29.965 187.474ZM96.2773 86.6179C124.576 59.4983 156.98 39.1736 193.522 25.6176L190.11 16.4186C152.302 30.4439 118.751 51.4911 89.4887 79.5341L96.2773 86.6179ZM193.498 25.6263C230.718 12.0382 269.721 5.23785 310.535 5.23785V-4.57368C268.606 -4.57368 228.463 2.41666 190.134 16.4098L193.498 25.6263ZM310.535 5.23785C352.567 5.23785 392.167 12.0438 429.371 25.6263L432.736 16.4098C394.392 2.41103 353.647 -4.57368 310.535 -4.57368V5.23785ZM429.371 25.6263C466.505 39.1829 498.883 59.498 526.555 86.582L533.418 79.57C504.729 51.4914 471.152 30.4346 432.736 16.4098L429.371 25.6263ZM526.555 86.582C554.193 113.632 576.018 147.21 591.982 187.417L601.101 183.796C584.688 142.458 562.142 107.683 533.418 79.57L526.555 86.582ZM591.992 187.44C607.898 226.912 615.919 273.035 615.919 325.911H625.731C625.731 272.061 617.563 224.647 601.092 183.773L591.992 187.44ZM737.781 638H732.875V642.906H737.781V638ZM737.781 14.7224V9.8166H732.875V14.7224H737.781ZM1155.1 14.7224H1160V9.8166H1155.1V14.7224ZM1155.1 132.543V137.448H1160V132.543H1155.1ZM878.086 132.543V127.637H873.18V132.543H878.086ZM878.086 262.954H873.18V267.86H878.086V262.954ZM1124.52 262.954H1129.42V258.048H1124.52V262.954ZM1124.52 380.774V385.68H1129.42V380.774H1124.52ZM878.086 380.774V375.869H873.18V380.774H878.086ZM878.086 638V642.906H882.992V638H878.086ZM742.687 638V14.7224H732.875V638H742.687ZM737.781 19.6281H1155.1V9.8166H737.781V19.6281ZM1150.19 14.7224V132.543H1160V14.7224H1150.19ZM1155.1 127.637H878.086V137.448H1155.1V127.637ZM873.18 132.543V262.954H882.992V132.543H873.18ZM878.086 267.86H1124.52V258.048H878.086V267.86ZM1119.61 262.954V380.774H1129.42V262.954H1119.61ZM1124.52 375.869H878.086V385.68H1124.52V375.869ZM873.18 380.774V638H882.992V380.774H873.18ZM878.086 633.094H737.781V642.906H878.086V633.094ZM1254.23 638H1249.32V642.906H1254.23V638ZM1254.23 14.7224V9.8166H1249.32V14.7224H1254.23ZM1671.55 14.7224H1676.45V9.8166H1671.55V14.7224ZM1671.55 132.543V137.448H1676.45V132.543H1671.55ZM1394.53 132.543V127.637H1389.63V132.543H1394.53ZM1394.53 262.954H1389.63V267.86H1394.53V262.954ZM1640.97 262.954H1645.87V258.048H1640.97V262.954ZM1640.97 380.774V385.68H1645.87V380.774H1640.97ZM1394.53 380.774V375.869H1389.63V380.774H1394.53ZM1394.53 638V642.906H1399.44V638H1394.53ZM1259.13 638V14.7224H1249.32V638H1259.13ZM1254.23 19.6281H1671.55V9.8166H1254.23V19.6281ZM1666.64 14.7224V132.543H1676.45V14.7224H1666.64ZM1671.55 127.637H1394.53V137.448H1671.55V127.637ZM1389.63 132.543V262.954H1399.44V132.543H1389.63ZM1394.53 267.86H1640.97V258.048H1394.53V267.86ZM1636.06 262.954V380.774H1645.87V262.954H1636.06ZM1640.97 375.869H1394.53V385.68H1640.97V375.869ZM1389.63 380.774V638H1399.44V380.774H1389.63ZM1394.53 633.094H1254.23V642.906H1394.53V633.094Z" fill="white"/>
</g>
</svg>
